PathFileType	4	(X/Y/Z)	28_2_42_p0_0-202_filt_butterworth.trc
DataRate	CameraRate	NumFrames	NumMarkers	Units	OrigDataRate	OrigDataStartFrame	OrigNumFrames
60.0	60.0	6	27	m	60.0	0	202
Frame#	Time	RHip			RKnee			RAnkle			RBigToe			RSmallToe			RHeel			LHip			LKnee			LAnkle			LBigToe			LSmallToe			LHeel			Neck			Head			Nose			RShoulder			RElbow			RWrist			RThumb			RIndex			RPinky			LShoulder			LElbow			LWrist			LThumb			LIndex			LPinky			
		X1	Y1	Z1	X2	Y2	Z2	X3	Y3	Z3	X4	Y4	Z4	X5	Y5	Z5	X6	Y6	Z6	X7	Y7	Z7	X8	Y8	Z8	X9	Y9	Z9	X10	Y10	Z10	X11	Y11	Z11	X12	Y12	Z12	X13	Y13	Z13	X14	Y14	Z14	X15	Y15	Z15	X16	Y16	Z16	X17	Y17	Z17	X18	Y18	Z18	X19	Y19	Z19	X20	Y20	Z20	X21	Y21	Z21	X22	Y22	Z22	X23	Y23	Z23	X24	Y24	Z24	X25	Y25	Z25	X26	Y26	Z26	X27	Y27	Z27	
0	0.0	0.22714608549702694	0.7032842386967777	1.0417267538434487	0.21926568590488887	0.9068617566495636	1.4160384014074419	0.21344011107493793	1.0494044701850047	1.747001275045386	0.1773931287971386	0.9379786577576739	1.8266177302981315	0.2359441986497462	0.9673111922081288	1.8222966429636904	0.19842605611112418	1.1540464622477156	1.7855955519589075	0.03601551970848455	0.7000654533794548	1.0649161091103525	0.03197195289754748	0.8907209834462965	1.4026034447850848	0.04137916078071007	1.06315484226145	1.758402444471912	0.026725156416004953	0.8903970048266658	1.8111633714771038	-0.025866900775920073	0.9483358303861121	1.8085020780771939	0.05432490033561281	1.1317805295169172	1.7880890470456605	0.10093757758711132	0.4933967920866867	0.5090477902021161	0.07844903417241665	0.38889587371803236	0.29725875962836135	0.07128403834484881	0.34590598629354447	0.425409861317075	0.2446510750529216	0.519112662537251	0.5805422563412188	0.2955511611714724	0.5308704005742209	0.830754927375833	0.15985851875005153	0.5318438379525896	1.0193244360518685	0.08229739122125203	0.5615317977082693	1.1011893919461082	0.07646643556585284	0.5798854553615945	1.1120296668358087	0.08520777596169476	0.5800043136118086	1.1082805439443977	-0.050389419441940524	0.5946171822460132	0.5829706545059121	-0.06260872068329547	0.5835776769528989	0.8301301984893749	0.05139140142721598	0.4959834473053206	1.0220827722516885	0.1305740245921745	0.4805226773752007	1.055536694977797	0.13332278736510902	0.4963675478026693	1.1040495644281392	0.08756574635760198	0.566371970648704	1.114273299855962
1	0.0166666666666666	0.22907406700536134	0.6941075719287865	1.043704009635133	0.22061890620503663	0.9098243189234871	1.4157425736276317	0.2163985088934684	1.049470985897515	1.7468416752858313	0.17936481674898497	0.9276064782374964	1.824195815077706	0.2376951353549811	0.9510266073156619	1.8186449696138505	0.19960273462236347	1.1466794443566135	1.7823375643399266	0.03596783332505002	0.6978984251522008	1.0609689286109822	0.037352766677328224	0.8809909397987953	1.4017726975604554	0.04192420281724546	1.0624462819729135	1.7562529511591836	0.026672016195925127	0.8905015386786822	1.811373461799935	-0.026749182562583684	0.9524589041439988	1.808628393486734	0.05420310529599363	1.1321726065212858	1.7882367906842465	0.10075011348172758	0.49262547384167815	0.5078503169807566	0.07847058974948277	0.38892124002587436	0.2971964471877655	0.0712878158864017	0.34604901458429665	0.42530178800439844	0.24215309000505358	0.5123234786392219	0.5832588872631295	0.291530495849063	0.5323334570996893	0.8314165930316838	0.15897442205996895	0.534988437883481	1.01940929035541	0.08114756172170645	0.561596028840506	1.1002795775606926	0.07493355822979149	0.5786725207265297	1.1097895841888943	0.08537368577602877	0.5799829350444896	1.1101841230285978	-0.05038249446418175	0.594616391569789	0.5829693803907742	-0.06330873000687394	0.5822562282977314	0.8277365027063014	0.0488445869452764	0.49525371907758203	1.0221510616725042	0.13219123544482664	0.47334648341457675	1.0555257487437584	0.13307875472471029	0.49638766446919635	1.1040798286564582	0.08763597317340856	0.5664485303914537	1.1142952496357257
2	0.0333333333333333	0.22984481983437546	0.6877791617060146	1.046017878857923	0.2209914582951003	0.9101420103155965	1.415924198851206	0.2181404596189344	1.0494575290680204	1.7467303404041084	0.18056230125606493	0.9213781878270592	1.8227413340280156	0.23796992663637428	0.939224148903356	1.816069620971502	0.20075333415522278	1.1397073699627611	1.7797426593192878	0.03596297120341872	0.6972513337363907	1.0598115706454962	0.040674337030857675	0.8750700638211566	1.4019404286248862	0.042483175374334894	1.0626482515184024	1.7557577850453616	0.02663707685461631	0.8905276374907282	1.8115013114892795	-0.027074347720381944	0.9541014633149787	1.8087187698707632	0.0541312422883832	1.1325776493479727	1.788414417804991	0.10056858368824131	0.4918920125203631	0.5066963522288617	0.0785105287115702	0.3890176543914519	0.2972202178855155	0.0712759516021738	0.3461452478986969	0.4252145394922646	0.24069494077549933	0.5084266536914684	0.5852879481233102	0.2892281072660029	0.5335843522220792	0.8323675689098803	0.15882029872746853	0.5351333251787431	1.0194780598153295	0.0800304213911327	0.5618201860190943	1.099819687898568	0.07353686374775024	0.577813318826633	1.1083790682551355	0.08545630831462603	0.5798417755000194	1.1113588428959469	-0.050384077762459026	0.5946123532698566	0.5829263714154572	-0.06426190290819439	0.579306445117405	0.8268137540458652	0.04734514276063473	0.49486511729313604	1.0221899089661832	0.13312032814664146	0.4689962012886161	1.0556291127425685	0.13284820651117163	0.49656111676853365	1.1041050394460545	0.08773175475154901	0.5664867780794128	1.1143105256280843
3	0.05	0.22910868037276166	0.6835769456633943	1.0481809080828923	0.22075550957309784	0.9090348038701435	1.4169258584981224	0.21858701719063053	1.0494958836299246	1.7466777577143218	0.18092338945491593	0.9196908661215857	1.8223500739429281	0.23684995753607396	0.9336107790050553	1.8149208418586373	0.20161531257535215	1.1348807202257447	1.7788469338327904	0.0360014424972344	0.6980342894130714	1.0611876478036661	0.04179178313269296	0.8733717544255011	1.4030881879844388	0.042993002395058946	1.063643869484593	1.756811293657707	0.026619887532160616	0.890506942353515	1.8115468899572145	-0.027140635000811347	0.9545241495145165	1.8087710416027099	0.054102286479543904	1.1329001602864612	1.7885943887043931	0.10043638930696279	0.49135831583771516	0.5058620511771872	0.07859406131934141	0.38932879615119187	0.2974977714005365	0.07125332709934717	0.3462001530895229	0.4251517865857711	0.24031709480707497	0.5075062097970727	0.5862953460037432	0.28874479689268634	0.5345033130152355	0.8334563677973393	0.15918437005561867	0.5332154415501524	1.0195161070687504	0.07923839039239623	0.5622039698480693	1.0999691733810806	0.0725516259949082	0.5772396828221011	1.1077764971350326	0.08544849359039776	0.5796299405169095	1.1117392491840734	-0.05041075530796155	0.5946598723746068	0.5828530006183913	-0.0653287357401488	0.5751953384145043	0.8274584511440216	0.04696563975127551	0.49484708537919214	1.0221993162275118	0.13338670543348224	0.4678223286172176	1.0561013990279584	0.13265921329162417	0.49695158548081997	1.104133468604981	0.0877662141527782	0.5665193241951246	1.1143299986652027
4	0.0666666666666666	0.22759607869690052	0.68001209954414	1.0495829283494662	0.22066282108081228	0.9086012140935826	1.4184189786202888	0.21853202410552314	1.0498341887678007	1.7466704779732583	0.1808950178591907	0.920368089823935	1.8224966338986184	0.23554986634965222	0.9326052934246462	1.8147596310077498	0.20202323473226833	1.1329992451850994	1.7796229943266426	0.03606188416376202	0.6990845929754872	1.0631124655007294	0.041867480801642515	0.8740119243982291	1.4046299418514117	0.04334127866384794	1.0646146553834985	1.7580888624626747	0.02660717798172043	0.89051376090858	1.8115638706957211	-0.02737294788616335	0.9555884933752472	1.8087958414746153	0.054106405472919485	1.1330515421304497	1.7886210250769368	0.1003789081881218	0.49110637795451767	0.5055012388947544	0.07872307315855329	0.38993668857186004	0.2981526429916335	0.07123610204689795	0.34625666281109396	0.42509648973090824	0.24041592564204403	0.5079002925879543	0.5865863389270187	0.2890811390873839	0.535054872921318	0.8342266834390601	0.15949369537050115	0.5316386872719988	1.0196084756458441	0.07891874157840625	0.5626316323483845	1.1003915555255575	0.07210489378765428	0.576825559919603	1.1075688310838154	0.08540160104529876	0.5794873073473156	1.111719060570835	-0.050470736763590505	0.5948440873625773	0.5828651221665297	-0.06610377221544	0.5718813369638918	0.8286572949485673	0.04702358578537124	0.49471475726705105	1.0222113538125122	0.13343819878113627	0.46845782570412775	1.057140418174304	0.1325328831353968	0.49716961208072524	1.1041883559512715	0.08747678218834207	0.5666046049414983	1.1143752288136928
5	0.0833333333333333	0.22642878021232027	0.677661232885582	1.0505282270966327	0.22081024079150094	0.9089050433409647	1.419592058315673	0.21878510022795528	1.0504737233874664	1.7467299177055986	0.18083635008307333	0.9214650164664593	1.8227224536783035	0.2348720059318476	0.9334306599324558	1.8149385903054225	0.20210461173251487	1.132917709273421	1.7807644575398025	0.03614584150677214	0.6997115606855562	1.0649130872754933	0.04177210460942937	0.8753101764517968	1.4064029278702908	0.0434945417978899	1.06507848087221	1.7587311363922467	0.026598628388870768	0.8905580706814565	1.8115861586532198	-0.02784206927572284	0.957652293842773	1.8087824191148625	0.054202614660683594	1.1330363621211539	1.7881646137150122	0.10038615478990295	0.49109118600591495	0.505533209475687	0.0788475356847699	0.3906602897510303	0.29900499697249394	0.07123357973551744	0.3463020321030278	0.4250353367621685	0.24052749844656685	0.5084148240864852	0.5868876337703727	0.28946016800500574	0.5353755938712051	0.8344932401292994	0.15954006363504328	0.5312362039499131	1.0200078384155378	0.07890181570738466	0.562900655856549	1.1006828249393796	0.07205572995697979	0.5766215336252111	1.1076242906309148	0.08536566571509059	0.5794861781378849	1.1116349385402402	-0.050516571884711876	0.5951107613132839	0.5832156212462675	-0.06639009184609332	0.570424688098736	0.8296840977964361	0.046790464512215725	0.49347222873236435	1.0222814351894483	0.13349009141582918	0.46955139408257396	1.0584767830006525	0.13247765367057734	0.4959502831619187	1.1042928248353243	0.08663009711314612	0.566662148310519	1.1144531259294754
